<?xml version="1.0" encoding="iso-8859-1"?>
<!-- Generator: Adobe Illustrator 19.0.0, SVG Export Plug-In . SVG Version: 6.00 Build 0)  -->
<svg version="1.1" id="Layer_1" xmlns="http://www.w3.org/2000/svg" xmlns:xlink="http://www.w3.org/1999/xlink" x="0px" y="0px"
	 viewBox="0 0 330 330" style="enable-background:new 0 0 330 330;" xml:space="preserve">
<g id="XMLID_16_">
	<path id="XMLID_17_" d="M315,0h-60c-8.284,0-15,6.716-15,15s6.716,15,15,15h45v45c0,8.284,6.716,15,15,15s15-6.716,15-15V15
		C330,6.716,323.284,0,315,0z"/>
	<path id="XMLID_18_" d="M75,300H30v-45c0-8.284-6.716-15-15-15s-15,6.716-15,15v60c0,8.284,6.716,15,15,15h60
		c8.284,0,15-6.716,15-15S83.284,300,75,300z"/>
	<path id="XMLID_19_" d="M315,240c-8.284,0-15,6.716-15,15v45h-45c-8.284,0-15,6.716-15,15s6.716,15,15,15h60
		c8.284,0,15-6.716,15-15v-60C330,246.716,323.284,240,315,240z"/>
	<path id="XMLID_20_" d="M75,0H15C6.716,0,0,6.716,0,15v60c0,8.284,6.716,15,15,15s15-6.716,15-15V30h45c8.284,0,15-6.716,15-15
		S83.284,0,75,0z"/>
</g>
<g>
</g>
<g>
</g>
<g>
</g>
<g>
</g>
<g>
</g>
<g>
</g>
<g>
</g>
<g>
</g>
<g>
</g>
<g>
</g>
<g>
</g>
<g>
</g>
<g>
</g>
<g>
</g>
<g>
</g>
</svg>
