<?xml version="1.0" encoding="iso-8859-1"?>
<!-- Generator: Adobe Illustrator 19.0.0, SVG Export Plug-In . SVG Version: 6.00 Build 0)  -->
<svg version="1.1" id="Capa_1" xmlns="http://www.w3.org/2000/svg" xmlns:xlink="http://www.w3.org/1999/xlink" x="0px" y="0px"
	 viewBox="0 0 285.803 285.803" style="enable-background:new 0 0 285.803 285.803;" xml:space="preserve">
<g>
	<path d="M100.815,39.32c0.668,0.239,1.351,0.353,2.022,0.353c2.462,0,4.772-1.528,5.649-3.979
		c2.639-7.367,8.199-15.186,27.92-10.197c20.355,5.149,41.068,6.717,54.671-16.459c1.677-2.857,0.72-6.534-2.138-8.212
		c-2.856-1.675-6.534-0.722-8.212,2.138c-8.061,13.737-18.893,16.587-41.38,10.899c-27.126-6.856-37.898,5.887-42.158,17.786
		C96.072,34.768,97.695,38.202,100.815,39.32z"/>
	<path d="M215.285,170.081c-3.866-22.86-20.326-25.967-27.416-26.224c-2.007-0.071-3.835-1.127-4.911-2.823
		c-5.367-8.456-12.645-10.681-18.814-10.682c-2.823,0-5.413,0.466-7.484,1.014c-0.608,0.161-1.228,0.239-1.839,0.239
		c-2.178,0-4.277-0.994-5.589-2.811c-5.28-7.316-12.171-9.293-18.077-9.293c-1.581,0-3.091,0.142-4.48,0.36
		c-0.371,0.058-0.739,0.086-1.102,0.086c-3.778,0-6.967-3.07-6.972-6.985l-0.051-42.288c-0.014-10.927-8.209-16.387-16.404-16.387
		c-8.211,0-16.422,5.479-16.408,16.427c0.023,18.358,0.089,73.493,0.109,90.107c0.003,2.807-1.675,5.344-4.265,6.427
		c-32.541,13.604,7.642,74.619,14.839,85.076c0.703,1.021,1.118,2.203,1.211,3.439l1.76,23.487c0.274,3.65,3.316,6.551,6.975,6.551
		c0.004,0,0.007,0,0.01,0l78.623-0.176c3.509-0.004,6.472-2.646,6.929-6.125l3.202-24.409c0.135-1.031,0.509-2.031,1.074-2.905
		C217.218,219.708,218.868,191.271,215.285,170.081z"/>
</g>
<g>
</g>
<g>
</g>
<g>
</g>
<g>
</g>
<g>
</g>
<g>
</g>
<g>
</g>
<g>
</g>
<g>
</g>
<g>
</g>
<g>
</g>
<g>
</g>
<g>
</g>
<g>
</g>
<g>
</g>
</svg>
