<?xml version="1.0" encoding="iso-8859-1"?>
<!-- Generator: Adobe Illustrator 19.0.0, SVG Export Plug-In . SVG Version: 6.00 Build 0)  -->
<svg version="1.1" id="Layer_1" xmlns="http://www.w3.org/2000/svg" xmlns:xlink="http://www.w3.org/1999/xlink" x="0px" y="0px"
	 viewBox="0 0 182.467 182.467" style="enable-background:new 0 0 182.467 182.467;" xml:space="preserve">
<g>
	<g>
		<g>
			<path d="M55.534,0h-47.6C5.742,0,3.967,1.774,3.967,3.967v47.6c0,2.192,1.774,3.967,3.967,3.967s3.967-1.774,3.967-3.967V7.933
				h43.633c2.192,0,3.967-1.774,3.967-3.967S57.727,0,55.534,0z"/>
			<path d="M55.534,174.533H11.901V130.9c0-2.192-1.774-3.967-3.967-3.967s-3.967,1.774-3.967,3.967v47.6
				c0,2.192,1.774,3.967,3.967,3.967h47.6c2.192,0,3.967-1.774,3.967-3.967S57.727,174.533,55.534,174.533z"/>
			<path d="M174.534,0h-47.6c-2.192,0-3.967,1.774-3.967,3.967s1.774,3.967,3.967,3.967h43.633v43.633
				c0,2.192,1.774,3.967,3.967,3.967c2.192,0,3.967-1.774,3.967-3.967v-47.6C178.5,1.774,176.727,0,174.534,0z"/>
			<path d="M174.534,126.933c-2.192,0-3.967,1.774-3.967,3.967v43.633h-43.633c-2.192,0-3.967,1.774-3.967,3.967
				s1.774,3.967,3.967,3.967h47.6c2.192,0,3.967-1.774,3.967-3.967v-47.6C178.5,128.708,176.727,126.933,174.534,126.933z"/>
			<path d="M77.211,77.211c3.746-3.746,8.727-5.811,14.023-5.811c5.296,0,10.277,2.065,14.023,5.81
				c0.775,0.775,1.79,1.162,2.804,1.162c1.014,0,2.03-0.388,2.804-1.162c1.549-1.549,1.549-4.059,0-5.609
				c-5.24-5.245-12.213-8.134-19.631-8.134c-7.418,0-14.391,2.89-19.632,8.135c-1.549,1.549-1.549,4.059,0,5.609
				S75.66,78.76,77.211,77.211z"/>
			<path d="M105.256,105.256c-3.746,3.746-8.727,5.81-14.023,5.81c-5.295,0-10.277-2.065-14.023-5.81
				c-1.549-1.549-4.059-1.549-5.609,0c-1.55,1.549-1.549,4.059,0,5.609C76.844,116.11,83.815,119,91.234,119
				c7.418,0,14.391-2.89,19.632-8.135c1.549-1.549,1.549-4.059,0-5.609S106.807,103.707,105.256,105.256z"/>
			<path d="M79.333,91.233c0,6.562,5.338,11.9,11.9,11.9c6.562,0,11.9-5.338,11.9-11.9c0-6.562-5.338-11.9-11.9-11.9
				C84.672,79.333,79.333,84.671,79.333,91.233z M95.201,91.233c0,2.189-1.778,3.967-3.967,3.967s-3.967-1.778-3.967-3.967
				c0-2.189,1.778-3.967,3.967-3.967S95.201,89.044,95.201,91.233z"/>
		</g>
	</g>
</g>
<g>
</g>
<g>
</g>
<g>
</g>
<g>
</g>
<g>
</g>
<g>
</g>
<g>
</g>
<g>
</g>
<g>
</g>
<g>
</g>
<g>
</g>
<g>
</g>
<g>
</g>
<g>
</g>
<g>
</g>
</svg>
