<?xml version="1.0" encoding="iso-8859-1"?>
<!-- Generator: Adobe Illustrator 19.0.0, SVG Export Plug-In . SVG Version: 6.00 Build 0)  -->
<svg version="1.1" id="Layer_1" xmlns="http://www.w3.org/2000/svg" xmlns:xlink="http://www.w3.org/1999/xlink" x="0px" y="0px"
	 viewBox="0 0 512 512" style="enable-background:new 0 0 512 512;" xml:space="preserve">
<g>
	<g>
		<g>
			<path d="M490.667,0h-85.333C393.536,0,384,9.557,384,21.333v85.333c0,11.776,9.536,21.333,21.333,21.333h85.333
				c11.797,0,21.333-9.557,21.333-21.333V21.333C512,9.557,502.464,0,490.667,0z"/>
			<path d="M106.667,384H21.333C9.536,384,0,393.557,0,405.333v85.333C0,502.443,9.536,512,21.333,512h85.333
				c11.797,0,21.333-9.557,21.333-21.333v-85.333C128,393.557,118.464,384,106.667,384z"/>
			<path d="M490.667,384h-85.333C393.536,384,384,393.557,384,405.333v85.333c0,11.776,9.536,21.333,21.333,21.333h85.333
				c11.797,0,21.333-9.557,21.333-21.333v-85.333C512,393.557,502.464,384,490.667,384z"/>
			<path d="M106.667,0H21.333C9.536,0,0,9.557,0,21.333v85.333C0,118.443,9.536,128,21.333,128h85.333
				c11.797,0,21.333-9.557,21.333-21.333V21.333C128,9.557,118.464,0,106.667,0z"/>
			<path d="M256,42.667c-11.776,0-21.333,9.557-21.333,21.333S244.224,85.333,256,85.333S277.333,75.776,277.333,64
				S267.776,42.667,256,42.667z"/>
			<path d="M170.667,42.667c-11.776,0-21.333,9.557-21.333,21.333s9.557,21.333,21.333,21.333S192,75.776,192,64
				S182.443,42.667,170.667,42.667z"/>
			<path d="M341.333,42.667C329.557,42.667,320,52.224,320,64s9.557,21.333,21.333,21.333c11.776,0,21.333-9.557,21.333-21.333
				S353.109,42.667,341.333,42.667z"/>
			<path d="M256,426.667c-11.776,0-21.333,9.557-21.333,21.333s9.557,21.333,21.333,21.333s21.333-9.557,21.333-21.333
				S267.776,426.667,256,426.667z"/>
			<path d="M64,277.333c11.776,0,21.333-9.557,21.333-21.333S75.776,234.667,64,234.667S42.667,244.224,42.667,256
				S52.224,277.333,64,277.333z"/>
			<path d="M64,362.667c11.776,0,21.333-9.557,21.333-21.333C85.333,329.557,75.776,320,64,320s-21.333,9.557-21.333,21.333
				C42.667,353.109,52.224,362.667,64,362.667z"/>
			<path d="M64,192c11.776,0,21.333-9.557,21.333-21.333S75.776,149.333,64,149.333s-21.333,9.557-21.333,21.333S52.224,192,64,192z
				"/>
			<path d="M448,277.333c11.776,0,21.333-9.557,21.333-21.333s-9.557-21.333-21.333-21.333s-21.333,9.557-21.333,21.333
				S436.224,277.333,448,277.333z"/>
			<path d="M448,362.667c11.776,0,21.333-9.557,21.333-21.333c0-11.776-9.557-21.333-21.333-21.333s-21.333,9.557-21.333,21.333
				C426.667,353.109,436.224,362.667,448,362.667z"/>
			<path d="M448,192c11.776,0,21.333-9.557,21.333-21.333s-9.557-21.333-21.333-21.333s-21.333,9.557-21.333,21.333
				S436.224,192,448,192z"/>
			<path d="M170.667,426.667c-11.776,0-21.333,9.557-21.333,21.333s9.557,21.333,21.333,21.333S192,459.776,192,448
				S182.443,426.667,170.667,426.667z"/>
			<path d="M341.333,426.667C329.557,426.667,320,436.224,320,448s9.557,21.333,21.333,21.333c11.776,0,21.333-9.557,21.333-21.333
				S353.109,426.667,341.333,426.667z"/>
		</g>
	</g>
</g>
<g>
</g>
<g>
</g>
<g>
</g>
<g>
</g>
<g>
</g>
<g>
</g>
<g>
</g>
<g>
</g>
<g>
</g>
<g>
</g>
<g>
</g>
<g>
</g>
<g>
</g>
<g>
</g>
<g>
</g>
</svg>
